<?xml version="1.0" standalone="no"?>
<!DOCTYPE svg PUBLIC "-//W3C//DTD SVG 20010904//EN"
 "http://www.w3.org/TR/2001/REC-SVG-20010904/DTD/svg10.dtd">
<svg version="1.0" xmlns="http://www.w3.org/2000/svg"
 width="96.000000pt" height="96.000000pt" viewBox="0 0 96.000000 96.000000"
 preserveAspectRatio="xMidYMid meet">
<metadata>
Created by potrace 1.14, written by Peter Selinger 2001-2017
</metadata>
<g transform="translate(0.000000,96.000000) scale(0.100000,-0.100000)"
fill="#000000" stroke="none">
<path d="M72 839 l-72 -120 0 -344 c0 -299 2 -346 16 -359 14 -14 70 -16 464
-16 394 0 450 2 464 16 14 13 16 60 16 359 l0 344 -72 120 -73 121 -335 0
-335 0 -73 -121z m751 -29 c26 -43 47 -81 47 -84 0 -3 -175 -6 -390 -6 -214 0
-390 3 -390 6 0 9 70 125 88 146 13 15 44 17 306 17 l292 0 47 -79z m-566
-228 c7 -4 17 -29 23 -56 19 -87 54 -132 122 -161 125 -52 266 34 281 170 9
79 72 71 70 -8 -4 -132 -132 -249 -273 -249 -136 0 -258 106 -273 238 -6 60
15 88 50 66z"/>
</g>
</svg>
